# xmcd
#
# Track frame offsets:
#	150
#	19712
#	49895
#	80611
#	105512
#	133632
#	169530
#	185577
#
# Disc length: 2711 seconds
#
# Revision: 1
# Processed by: cddbd v1.5.2PL0 Copyright (c) Steve Scherf et al.
# Submitted via: audiograbber 1.83.01
#
DISCID=600a9508
DTITLE=Grateful Dead - 71-08-26 Gaelic Park, Bronx NY
DYEAR=1900
DGENRE=
TTITLE0=Next Time You See Me
TTITLE1=Me and Bobby McGee
TTITLE2=Uncle John's Band
TTITLE3=St Stephen
TTITLE4=Not Fade Away
TTITLE5=Going Down The Road Feeling Bad
TTITLE6=Not Fade Away
TTITLE7=Johnny B Goode
EXTD=
EXTT0=
EXTT1=
EXTT2=
EXTT3=
EXTT4=
EXTT5=
EXTT6=
EXTT7=
PLAYORDER=
